<?xml version="1.0" encoding="utf-8"?>
<!-- Generator: Adobe Illustrator 27.3.1, SVG Export Plug-In . SVG Version: 6.00 Build 0)  -->
<svg version="1.1" xmlns="http://www.w3.org/2000/svg" xmlns:xlink="http://www.w3.org/1999/xlink" x="0px" y="0px"
	 viewBox="0 0 595.28 595.28" style="enable-background:new 0 0 595.28 595.28;" xml:space="preserve">
<style type="text/css">
	.st0{display:none;}
	.st1{display:inline;}
	.st2{fill:white;stroke:#FFFFF;stroke-width:58;stroke-miterlimit:10;}
	.st3{fill:#ED1C24;}
</style>
<g id="Layer_1" class="st0">
	<path class="st1" d="M221.86,96.82c-63.82,15.9-113.89,67.33-129.35,132.86c-28.76,121.93,60.42,230.73,174.36,230.73
		c2.08,0,4.17-0.04,6.23-0.12c0.01,0,0.01,0,0.01-0.01v-29.44c0,0,0,0,0,0c-2.07,0.09-4.15,0.13-6.24,0.13
		c-94.78,0-169.2-89.59-147.28-190.78c11.21-51.76,62.16-104.06,112.57-115.57C330.74,102.1,418,178.49,418,275.81h28.67
		c0,0,0,0,0,0C446.68,158.8,340.64,67.23,221.86,96.82z"/>
	<path class="st1" d="M508.22,317.48v83.75c0,10.55-8.55,19.1-19.1,19.1H358.51c-10.55,0-19.1,8.55-19.1,19.1v7.34
		c0,10.55,8.55,19.1,19.1,19.1h130.61c10.55,0,19.1,8.55,19.1,19.1v0.01c0,10.55-8.55,19.1-19.1,19.1H320.31
		c-10.55,0-19.1-8.55-19.1-19.1v-83.75c0-10.55,8.55-19.1,19.1-19.1h130.62c10.55,0,19.1-8.55,19.1-19.1v-7.35
		c0-10.55-8.55-19.1-19.1-19.1H320.31c-10.55,0-19.1-8.55-19.1-19.1v0c0-10.55,8.55-19.1,19.1-19.1h168.81
		C499.67,298.39,508.22,306.94,508.22,317.48z"/>
</g>
<g id="Layer_2">
	<path d="M439.35,113.18c-63-78.26-177.51-90.63-255.77-27.64c-77.03,62-90.24,173.91-30.55,252.05c0.95,1.25,1.92,2.48,2.91,3.71
		c6.76,8.4,14.11,16.04,21.95,22.9c12.89,11.3,32.11,11.53,45.46,0.78l0,0c15.15-12.19,15.44-35.31,0.42-47.65
		c-6.08-4.99-11.74-10.68-16.86-17.05c-0.99-1.23-1.95-2.47-2.88-3.73c-37.04-49.96-28.3-120.7,20.59-160.04
		c50.11-40.34,123.43-32.41,163.77,17.7c40.26,50.02,32.44,123.16-17.42,163.54l-0.53,0.43l-108.6,87.41
		c51.06,10.23,106.13-1.44,149.87-36.65c0.81-0.66,1.62-1.32,2.42-1.99C490.21,303.57,501.68,190.63,439.35,113.18z"/>
	<path d="M464.87,517.23L464.87,517.23c0,18.07-14.65,32.72-32.71,32.72H139.38c-14.58,0-21.38-18.06-10.43-27.68l42.99-37.75
		l89.88-78.93l108.6-87.41l0.53-0.43l2.15-1.73l41.01,50.93l0.02,0.03l-2.44,1.96L292.93,470.42c-5.66,4.83-2.24,14.09,5.2,14.09
		h134.02C450.22,484.52,464.87,499.16,464.87,517.23z"/>
	<g>
		<g>
			<path class="st3" d="M341.37,197.08c2.07,3.11,3.96,6.31,5.59,9.67c0.39,0.8,0.7,1.75,1.16,2.49c-0.24-0.39-1.92-5.12-0.71-1.59
				c0.66,1.92,1.36,3.82,1.93,5.77c0.5,1.72,0.94,3.45,1.32,5.2c0.18,0.81,1.18,7.13,0.63,2.92c-0.51-3.91,0.07,1.21,0.14,2.28
				c0.14,2.2,0.2,4.4,0.15,6.6c-0.03,1.76-0.13,3.51-0.28,5.26c-0.07,0.82-0.31,1.82-0.28,2.62c-0.02-0.39,1.01-5.75,0.22-2.08
				c-0.74,3.44-1.43,6.85-2.51,10.21c-0.48,1.5-1.65,3.43-1.77,4.96c0.26-3.34,1.75-3.84,0.72-1.73c-0.39,0.79-0.75,1.6-1.14,2.39
				c-1.68,3.38-3.62,6.63-5.78,9.72c-3.1,4.43,2.92-3.38-0.57,0.78c-1.16,1.39-2.38,2.73-3.64,4.04c-1.11,1.15-2.26,2.27-3.44,3.35
				c-0.68,0.62-1.37,1.23-2.08,1.83c-0.53,0.45-1.07,0.89-1.61,1.33c-1.31,1.05-0.72,0.59,1.78-1.39c-0.73-0.31-8.31,5.33-9.52,5.97
				c-1.42,0.76-2.89,1.41-4.33,2.12c-2.63,1.3,4.35-1.65,1.6-0.68c-1.07,0.37-2.12,0.8-3.19,1.16c-3.39,1.15-6.86,2.06-10.38,2.73
				c-0.66,0.13-1.95,0.17-2.63,0.45c0.35-0.15,5.81-0.56,2.03-0.3c-1.98,0.13-3.95,0.32-5.94,0.36c-3.54,0.08-7-0.24-10.52-0.48
				c-2.92-0.2,4.89,1.03,2.07,0.26c-0.62-0.17-1.31-0.22-1.94-0.34c-2.15-0.41-4.29-0.92-6.4-1.51c-1.91-0.54-3.76-1.19-5.64-1.83
				c-0.89-0.3-3.54-1.61-0.38-0.07c3.45,1.67-0.17-0.1-0.94-0.47c-3.6-1.72-7.07-3.72-10.36-5.97c-0.33-0.22-1.67-1.44-2.18-1.55
				c2.58,2.04,3.22,2.52,1.89,1.46c-0.53-0.42-1.05-0.85-1.56-1.29c-1.55-1.32-3.05-2.72-4.49-4.16c-1.46-1.46-2.86-2.98-4.2-4.56
				c-0.59-0.7-1.14-1.49-1.76-2.15c0.61,0.77,1.21,1.55,1.82,2.32c-0.56-0.76-1.1-1.53-1.63-2.31c-6.68-9.66-20.04-15-30.78-8.07
				c-9.61,6.19-15.23,20.43-8.07,30.78c12.46,18.03,28.94,31.22,49.45,38.99c18.33,6.94,39.08,7.63,58.05,3.01
				c19.05-4.65,37.56-15.72,50.31-30.66c14.26-16.7,22.29-36.12,24.59-57.91c2.27-21.61-3.96-44.62-15.93-62.64
				c-6.51-9.79-20.16-14.92-30.78-8.07C339.68,172.59,334.4,186.59,341.37,197.08L341.37,197.08z"/>
		</g>
	</g>
</g>
</svg>
